# xmcd
#
# Track frame offsets: 
#        150
#        13120
#        21990
#        47537
#        59170
#        75467
#        91930
#        105627
#        122790
#        134657
#        145607
#        155917
#        168800
#        178260
#        196050
#        208230
#        220087
#        232830
#        245737
#        258587
#        273447
#        289687
#        307420
#        332355
#
# Disc length: 4660 seconds
#
# Revision: 1
# Processed by: cddbd v1.5.2PL0 Copyright (c) Steve Scherf et al.
# Submitted via: ExactAudioCopy v0.99pb4
#
DISCID=67123218
DTITLE=Kris Kristofferson - Live At The Philharmonic (1972) {U.S. Pres
DTITLE=sing}
DYEAR=1992
DGENRE=Country
TTITLE0=Late John Garfield Blues
TTITLE1=Jesus Was A Capricorn (Owed To John Prine)
TTITLE2=Nobody Wins
TTITLE3=Jesse Younger
TTITLE4=Loving Her Was Easier (Than Anything I'll Ever Do Again)
TTITLE5=Late Again (Gettin' Over You)
TTITLE6=Out Of Mind, Out Of Sight
TTITLE7=Sugar Man
TTITLE8=Billy Dee
TTITLE9=The Law Is For Protection Of The People
TTITLE10=For The Good Times
TTITLE11=Sunday Mornin' Comin' Down
TTITLE12=Okie From Muskogee
TTITLE13=Border Lord
TTITLE14=Funny How Time Slips Away (With Willie Nelson)
TTITLE15=Night Life (With Willie Nelson)
TTITLE16=Me And Paul (With Willie Nelson)
TTITLE17=Mountain Dew (With Willie Nelson)
TTITLE18=The Pilgrim - Chapter 33
TTITLE19=Rainbow Road
TTITLE20=It Sure Was (Love) (With Rita Coolidge)
TTITLE21=Help Me (With Larry Gatlin)
TTITLE22=Me And Bobby McGee (With Rita Coolidge)
TTITLE23=Whiskey, Whiskey (With Rita Coolidge)
EXTD=YEAR: 1972
EXTT0=
EXTT1=
EXTT2=
EXTT3=
EXTT4=
EXTT5=
EXTT6=
EXTT7=
EXTT8=
EXTT9=
EXTT10=
EXTT11=
EXTT12=
EXTT13=
EXTT14=
EXTT15=
EXTT16=
EXTT17=
EXTT18=
EXTT19=
EXTT20=
EXTT21=
EXTT22=
EXTT23=
PLAYORDER=
